<?xml version="1.0" encoding="UTF-8"?>
<svg width="1679px" height="230px" viewBox="0 0 1679 230" version="1.1" xmlns="http://www.w3.org/2000/svg" xmlns:xlink="http://www.w3.org/1999/xlink">
    <title>EE4527B7-CAA7-4923-8430-DD76CD2E4A96</title>
    <defs>
        <rect id="path-1" x="0" y="-2.84217094e-14" width="1678.83414" height="230"></rect>
    </defs>
    <g id="01-Homepage" stroke="none" stroke-width="1" fill="none" fill-rule="evenodd">
        <g id="01.1-HOMEPAGE" transform="translate(0.000000, -2475.000000)">
            <g id="FOOTER" transform="translate(-0.000000, 2475.000000)">
                <g id="footer" transform="translate(0.000000, 0.000000)">
                    <mask id="mask-2" fill="white">
                        <use xlink:href="#path-1"></use>
                    </mask>
                    <use id="Rectangle" fill="#FAFAFA" xlink:href="#path-1"></use>
                    <g id="Logo-marca" opacity="0.150769915" mask="url(#mask-2)" fill="#575757">
                        <g transform="translate(938.000000, -338.940212)" opacity="0.316898891">
                            <path d="M568.12461,303 C561.108694,303 553.652243,303.211375 546,303.552828 C596.677757,372.152232 614.348076,455.775539 598.733584,554 C656.508838,533.756753 702.275454,508.716914 723.698472,496.879899 C726.831161,495.123858 729.490682,493.69301 731.677038,492.522317 C742.315124,460.328237 748.449972,426.426896 750,391.647535 C703.074942,327.161819 653.359834,303 568.12461,303" id="Fill-92"></path>
                            <path d="M750,355.67439 C745.113403,261.639725 706.15094,174.590491 638.992814,108.79065 C633.373228,103.25441 595.632414,90 535.625008,90 C459.573277,90 314.359915,111.884431 196.120567,258.431962 C163.38037,299.041911 146.635632,344.829873 131.878111,385.228142 C113.765126,434.77749 98.1280169,477.569369 57.7484406,483.936045 C43.1049395,486.264523 25.4969032,481.623851 11,469.720935 C40.6942185,585.933127 124.678525,681.840344 238.405916,726 C215.22716,689.981874 205.437678,660.7375 205.437678,604.170153 C205.4051,437.333931 338.939496,299.351289 516.029756,283.214778 C534.794287,281.505056 552.337169,280.642054 568.251185,280.642054 C649.775904,280.642054 703.333003,302.119409 750,355.67439 Z" id="Fill-94"></path>
                            <path d="M236.830863,538.173568 C231.751384,559.404271 229,581.462776 229,604.105612 C229,666.840066 240.998641,690.294474 274.894393,737.235752 C306.966743,746.146804 340.748533,751 375.637389,751 C526.019265,751 660.804536,661.743399 720,526 C669.481979,553.220098 559.214961,607.368129 440.482145,607.400592 C362.743327,607.400592 294.349448,583.913721 236.830863,538.173568" id="Fill-96"></path>
                            <path d="M0.536209172,388.580621 C3.88345431,443.743468 36.575965,463.567616 55.0833058,460.737918 C82.1699934,456.460846 94.3728143,423.106188 111.255279,376.855264 C119.477153,354.347781 128.96643,328.717874 141.851699,302.860289 C142.274167,264.480478 146.742577,227.222789 151.877186,194.437323 C164.015012,117.79154 181.287446,79.6881935 195.16389,49.0656579 C195.781343,47.6670716 196.382547,46.3335358 197,45 C76.4179314,110.13184 0,236.590065 0,375.098899 C0,379.668699 0.178736391,388.580621 0.341224018,388.580621 L0.536209172,388.580621 Z" id="Fill-98"></path>
                        </g>
                    </g>
                </g>
            </g>
        </g>
    </g>
</svg>